<?xml version="1.0" encoding="UTF-8"?>
<svg width="30px" height="30px" viewBox="0 0 30 30" version="1.1" xmlns="http://www.w3.org/2000/svg" xmlns:xlink="http://www.w3.org/1999/xlink">
    <!-- Generator: Sketch 49 (51002) - http://www.bohemiancoding.com/sketch -->
    <title>Page 1</title>
    <desc>Created with Sketch.</desc>
    <defs>
        <polygon id="path-1" points="0 0 29.99925 0 29.99925 29.99985 0 29.99985"></polygon>
    </defs>
    <g id="Symbols" stroke="none" stroke-width="1" fill="none" fill-rule="evenodd">
        <g id="Footer" transform="translate(-125.000000, -133.000000)">
            <g id="Page-1" transform="translate(125.000000, 133.000000)">
                <g id="Group-3">
                    <mask id="mask-2" fill="white">
                        <use xlink:href="#path-1"></use>
                    </mask>
                    <g id="Clip-2"></g>
                    <path d="M29.24925,-0.00015 L0.74925,-0.00015 C0.33675,-0.00015 -0.00075,0.33585 -0.00075,0.74985 L-0.00075,29.24985 C-0.00075,29.66385 0.33675,29.99985 0.74925,29.99985 L29.24925,29.99985 C29.66325,29.99985 29.99925,29.66385 29.99925,29.24985 L29.99925,0.74985 C29.99925,0.33585 29.66325,-0.00015 29.24925,-0.00015" id="Fill-1" fill="#97AA3A" mask="url(#mask-2)"></path>
                </g>
                <path d="M21.9456,18.78285 C21.9456,20.52735 20.5266,21.94485 18.7836,21.94485 L11.2176,21.94485 C9.4731,21.94485 8.0541,20.52735 8.0541,18.78285 L8.0541,11.21685 C8.0541,9.47235 9.4731,8.05485 11.2176,8.05485 L18.7836,8.05485 C20.5266,8.05485 21.9456,9.47235 21.9456,11.21685 L21.9456,18.78285 Z M18.7836,6.55635 L11.2176,6.55635 C8.6466,6.55635 6.5556,8.64735 6.5556,11.21685 L6.5556,18.78285 C6.5556,21.35235 8.6466,23.44335 11.2176,23.44335 L18.7836,23.44335 C21.3516,23.44335 23.4426,21.35235 23.4426,18.78285 L23.4426,11.21685 C23.4426,8.64735 21.3516,6.55635 18.7836,6.55635 Z" id="Fill-4" fill="#FFFFFF"></path>
                <path d="M14.99925,17.85255 C13.42725,17.85255 12.14775,16.57305 12.14775,14.99955 C12.14775,13.42755 13.42575,12.14655 14.99925,12.14655 C16.57425,12.14655 17.85225,13.42755 17.85225,14.99955 C17.85225,16.57305 16.57275,17.85255 14.99925,17.85255 M14.99925,10.64955 C12.59925,10.64955 10.64925,12.60105 10.64925,14.99955 C10.64925,17.39955 12.59925,19.35105 14.99925,19.35105 C17.39925,19.35105 19.35075,17.39955 19.35075,14.99955 C19.35075,12.60105 17.39925,10.64955 14.99925,10.64955" id="Fill-6" fill="#FFFFFF"></path>
                <path d="M19.5345,9.37845 C19.245,9.37845 18.9615,9.49545 18.7575,9.69945 C18.5535,9.90345 18.435,10.18845 18.435,10.47645 C18.435,10.76595 18.5535,11.04945 18.7575,11.25345 C18.9615,11.45745 19.245,11.57595 19.5345,11.57595 C19.8225,11.57595 20.106,11.45745 20.3115,11.25345 C20.5155,11.04945 20.6325,10.76595 20.6325,10.47645 C20.6325,10.18845 20.5155,9.90345 20.3115,9.69945 C20.1075,9.49545 19.8225,9.37845 19.5345,9.37845" id="Fill-8" fill="#FFFFFF"></path>
            </g>
        </g>
    </g>
</svg>