<?xml version="1.0" encoding="UTF-8"?>
<svg width="30px" height="30px" viewBox="0 0 30 30" version="1.1" xmlns="http://www.w3.org/2000/svg" xmlns:xlink="http://www.w3.org/1999/xlink">
    <!-- Generator: Sketch 49 (51002) - http://www.bohemiancoding.com/sketch -->
    <title>Page 1</title>
    <desc>Created with Sketch.</desc>
    <defs>
        <polygon id="path-1" points="0 0 29.99925 0 29.99925 29.99985 0 29.99985"></polygon>
    </defs>
    <g id="Symbols" stroke="none" stroke-width="1" fill="none" fill-rule="evenodd">
        <g id="Footer" transform="translate(-172.000000, -133.000000)">
            <g id="Page-1" transform="translate(172.000000, 133.000000)">
                <g id="Group-3">
                    <mask id="mask-2" fill="white">
                        <use xlink:href="#path-1"></use>
                    </mask>
                    <g id="Clip-2"></g>
                    <path d="M0.74925,-0.00015 C0.33675,-0.00015 -0.00075,0.33585 -0.00075,0.74985 L-0.00075,29.24985 C-0.00075,29.66385 0.33675,29.99985 0.74925,29.99985 L29.24925,29.99985 C29.66325,29.99985 29.99925,29.66385 29.99925,29.24985 L29.99925,0.74985 C29.99925,0.33585 29.66325,-0.00015 29.24925,-0.00015 L0.74925,-0.00015 Z" id="Fill-1" fill="#97AA3A" mask="url(#mask-2)"></path>
                </g>
                <path d="M10.3425,12.64575 L11.6655,12.64575 L11.667,8.07525 L13.2285,4.15875 L11.7825,4.15875 L10.9515,7.06725 L10.11,4.14975 L8.679,4.14975 L10.341,8.07675 L10.3425,12.64575 Z M14.22,11.04375 C14.22,11.38125 14.472,11.65575 14.778,11.65575 C15.084,11.65575 15.3345,11.38125 15.3345,11.04375 L15.3345,7.87125 C15.3345,7.53375 15.084,7.25775 14.778,7.25775 C14.472,7.25775 14.22,7.53375 14.22,7.87125 L14.22,11.04375 Z M13.1235,8.67675 C13.1235,8.10375 13.173,7.65825 13.266,7.33425 C13.362,7.01325 13.533,6.75675 13.782,6.56175 C14.028,6.36675 14.346,6.26925 14.7315,6.26925 C15.0555,6.26925 15.333,6.33225 15.564,6.45675 C15.7995,6.58125 15.978,6.74325 16.1025,6.94575 C16.23,7.14675 16.3155,7.35375 16.3635,7.56525 C16.4085,7.78125 16.434,8.10525 16.434,8.54175 L16.434,10.04925 C16.434,10.60125 16.41,11.00925 16.368,11.26725 C16.3245,11.52525 16.2345,11.76675 16.0905,11.99025 C15.951,12.21375 15.771,12.38025 15.552,12.48675 C15.33,12.59475 15.078,12.64575 14.7915,12.64575 C14.472,12.64575 14.202,12.60375 13.9815,12.51075 C13.758,12.41925 13.587,12.28125 13.464,12.09675 C13.341,11.91375 13.254,11.69025 13.2,11.42925 C13.1475,11.16825 13.1235,10.77525 13.1235,10.25475 L13.1235,8.67675 Z M17.3715,12.04275 C17.436,12.19875 17.5365,12.32775 17.6745,12.42375 C17.808,12.51975 17.9805,12.56625 18.1875,12.56625 C18.3705,12.56625 18.5295,12.51825 18.669,12.41775 C18.8085,12.31575 18.927,12.16725 19.0215,11.96625 L18.999,12.45975 L20.4,12.45975 L20.4,6.49875 L19.2975,6.49875 L19.2975,11.13825 C19.2975,11.39025 19.089,11.59425 18.8355,11.59425 C18.585,11.59425 18.3765,11.39025 18.3765,11.13825 L18.3765,6.49875 L17.226,6.49875 L17.226,10.52025 C17.226,11.03175 17.2365,11.37225 17.25,11.54625 C17.2665,11.71725 17.307,11.88225 17.3715,12.04275 Z M22.206,21.74025 L21.264,21.74625 C21.2625,21.78375 21.261,21.82725 21.261,21.87375 L21.261,22.40025 C21.261,22.68075 21.0285,22.91025 20.7465,22.91025 L20.5605,22.91025 C20.2785,22.91025 20.046,22.68075 20.046,22.40025 L20.046,21.01575 L22.2045,21.01575 L22.2045,20.20425 C22.2045,19.61025 22.188,19.01625 22.14,18.67725 C21.9855,17.60325 20.4795,17.43225 19.7175,17.98275 C19.4775,18.15375 19.296,18.38325 19.1895,18.69225 C19.083,19.00125 19.029,19.42275 19.029,19.95975 L19.029,21.74475 C19.029,24.71475 22.6365,24.29625 22.206,21.74025 Z M18.2715,22.13925 L18.2685,19.14225 C18.267,18.00075 17.4135,17.31675 16.2525,18.23925 L16.2585,16.01175 L15.003,16.01475 L14.9985,23.70375 L16.0305,23.68725 L16.1235,23.20875 C17.4435,24.42075 18.273,23.58975 18.2715,22.13925 Z M14.2485,18.01575 L12.9915,18.01575 L12.9915,21.61575 C12.9915,22.13625 13.023,22.39575 12.9915,22.48875 C12.888,22.76775 12.429,23.06325 12.249,22.51875 C12.219,22.42425 12.246,22.13475 12.246,21.64125 L12.2415,18.01575 L10.9905,18.01575 L10.995,21.58275 C10.995,22.13025 10.9815,22.53825 10.998,22.72425 C11.0295,23.05125 11.0175,23.43225 11.3205,23.64975 C11.8875,24.05775 12.972,23.58825 13.2435,23.00625 L13.2405,23.75025 L14.25,23.75175 L14.25,18.01575 L14.2485,18.01575 Z M9.729,23.75175 L9.729,17.01225 L11.2365,17.01225 L11.2365,16.01325 L7.2165,16.00725 L7.2165,16.98975 L8.4705,16.99275 L8.4705,23.75175 L9.729,23.75175 Z M24.0405,16.65825 L24.0405,23.05725 C24.0405,24.59325 22.71,25.84875 21.0825,25.84875 L8.9175,25.84875 C7.29,25.84875 5.958,24.59325 5.958,23.05725 L5.958,16.65825 C5.958,15.12375 7.29,13.86675 8.9175,13.86675 L21.0825,13.86675 C22.71,13.86675 24.0405,15.12375 24.0405,16.65825 Z M16.7865,18.53925 C16.4865,18.53925 16.239,18.74325 16.239,18.99225 L16.239,22.35525 C16.239,22.60425 16.4865,22.80525 16.7865,22.80525 C17.091,22.80525 17.3385,22.60425 17.3385,22.35525 L17.3385,18.99225 C17.3385,18.74325 17.091,18.53925 16.7865,18.53925 Z M21.2535,20.02125 L20.0625,20.02125 L20.0685,19.33125 C20.0685,19.02375 20.3205,18.77175 20.6295,18.77175 L20.706,18.77175 C21.0135,18.77175 21.267,19.02375 21.267,19.33125 L21.2535,20.02125 Z" id="Fill-4" fill="#FFFFFF"></path>
            </g>
        </g>
    </g>
</svg>