<?xml version="1.0" encoding="UTF-8"?>
<svg width="30px" height="30px" viewBox="0 0 30 30" version="1.1" xmlns="http://www.w3.org/2000/svg" xmlns:xlink="http://www.w3.org/1999/xlink">
    <!-- Generator: Sketch 49 (51002) - http://www.bohemiancoding.com/sketch -->
    <title>Page 1</title>
    <desc>Created with Sketch.</desc>
    <defs>
        <polygon id="path-1" points="0 0 29.9994 0 29.9994 29.99985 0 29.99985"></polygon>
    </defs>
    <g id="Symbols" stroke="none" stroke-width="1" fill="none" fill-rule="evenodd">
        <g id="Footer" transform="translate(-77.000000, -133.000000)">
            <g id="Page-1" transform="translate(77.000000, 133.000000)">
                <g id="Group-3">
                    <mask id="mask-2" fill="white">
                        <use xlink:href="#path-1"></use>
                    </mask>
                    <g id="Clip-2"></g>
                    <path d="M29.2494,-0.00015 L0.7494,-0.00015 C0.3369,-0.00015 -0.0006,0.33585 -0.0006,0.74985 L-0.0006,29.24985 C-0.0006,29.66385 0.3369,29.99985 0.7494,29.99985 L29.2494,29.99985 C29.6634,29.99985 29.9994,29.66385 29.9994,29.24985 L29.9994,0.74985 C29.9994,0.33585 29.6634,-0.00015 29.2494,-0.00015" id="Fill-1" fill="#97AA3A" mask="url(#mask-2)"></path>
                </g>
                <path d="M24.3744,9.1866 C23.6844,9.4926 22.9449,9.6996 22.1664,9.7926 C22.9614,9.3171 23.5689,8.5626 23.8569,7.6656 C23.1114,8.1066 22.2894,8.4261 21.4119,8.6001 C20.7114,7.8516 19.7139,7.3851 18.6054,7.3851 C16.4814,7.3851 14.7594,9.1071 14.7594,11.2296 C14.7594,11.5311 14.7924,11.8251 14.8584,12.1071 C11.6619,11.9466 8.8284,10.4151 6.9309,8.0886 C6.5994,8.6556 6.4104,9.3156 6.4104,10.0206 C6.4104,11.3556 7.0914,12.5331 8.1219,13.2216 C7.4919,13.2006 6.8994,13.0281 6.3804,12.7401 L6.3804,12.7866 C6.3804,14.6511 7.7064,16.2051 9.4659,16.5591 C9.1434,16.6461 8.8029,16.6941 8.4519,16.6941 C8.2029,16.6941 7.9629,16.6686 7.7259,16.6221 C8.2179,18.1521 9.6369,19.2636 11.3199,19.2936 C10.0044,20.3241 8.3439,20.9376 6.5424,20.9376 C6.2319,20.9376 5.9259,20.9181 5.6244,20.8851 C7.3284,21.9771 9.3474,22.6146 11.5209,22.6146 C18.5964,22.6146 22.4649,16.7541 22.4649,11.6721 L22.4514,11.1741 C23.2074,10.6341 23.8599,9.9576 24.3744,9.1866" id="Fill-4" fill="#FFFFFF"></path>
            </g>
        </g>
    </g>
</svg>