<?xml version="1.0" encoding="UTF-8"?>
<svg width="40px" height="40px" viewBox="0 0 40 40" version="1.1" xmlns="http://www.w3.org/2000/svg" xmlns:xlink="http://www.w3.org/1999/xlink">
    <!-- Generator: Sketch 48.2 (47327) - http://www.bohemiancoding.com/sketch -->
    <title>Page 1</title>
    <desc>Created with Sketch.</desc>
    <defs>
        <polygon id="path-1" points="0.6061 0 19 0 19 18.3939 0.6061 18.3939"></polygon>
        <polygon id="path-3" points="0 0.0004 18.3947 0.0004 18.3947 18.3944 0 18.3944"></polygon>
        <polygon id="path-5" points="0.6056 0.6063 19 0.6063 19 19 0.6056 19"></polygon>
        <polygon id="path-7" points="0.0002 0.6058 18.3942 0.6058 18.3942 19 0.0002 19"></polygon>
    </defs>
    <g id="iPhone-8" stroke="none" stroke-width="1" fill="none" fill-rule="evenodd" transform="translate(-324.000000, -10.000000)">
        <g id="Group" transform="translate(324.000000, 10.000000)">
            <g id="Page-1">
                <g id="Group-3" transform="translate(21.000000, 0.000000)">
                    <mask id="mask-2" fill="white">
                        <use xlink:href="#path-1"></use>
                    </mask>
                    <g id="Clip-2"></g>
                    <path d="M16.5851,18.3939 L19.0001,18.3939 C18.2231,8.5919 10.4081,0.7769 0.6061,-0.0001 L0.6061,2.4149 C9.0641,3.1809 15.8181,9.9349 16.5851,18.3939" id="Fill-1" fill="#478E41" mask="url(#mask-2)"></path>
                </g>
                <g id="Group-6">
                    <mask id="mask-4" fill="white">
                        <use xlink:href="#path-3"></use>
                    </mask>
                    <g id="Clip-5"></g>
                    <path d="M18.3947,2.4154 L18.3947,0.0004 C8.5917,0.7764 0.7767,8.5924 -0.0003,18.3944 L2.4157,18.3944 C3.1817,9.9354 9.9357,3.1814 18.3947,2.4154" id="Fill-4" fill="#478E41" mask="url(#mask-4)"></path>
                </g>
                <g id="Group-9" transform="translate(21.000000, 21.000000)">
                    <mask id="mask-6" fill="white">
                        <use xlink:href="#path-5"></use>
                    </mask>
                    <g id="Clip-8"></g>
                    <path d="M0.6056,16.5853 L0.6056,19.0003 C10.4086,18.2233 18.2226,10.4073 19.0006,0.6063 L16.5846,0.6063 C15.8186,9.0643 9.0646,15.8183 0.6056,16.5853" id="Fill-7" fill="#478E41" mask="url(#mask-6)"></path>
                </g>
                <g id="Group-12" transform="translate(0.000000, 21.000000)">
                    <mask id="mask-8" fill="white">
                        <use xlink:href="#path-7"></use>
                    </mask>
                    <g id="Clip-11"></g>
                    <path d="M2.4152,0.6058 L0.0002,0.6058 C0.7762,10.4078 8.5922,18.2228 18.3942,19.0008 L18.3942,16.5848 C9.9362,15.8188 3.1812,9.0648 2.4152,0.6058" id="Fill-10" fill="#478E41" mask="url(#mask-8)"></path>
                </g>
            </g>
        </g>
    </g>
</svg>