<?xml version="1.0" encoding="UTF-8"?>
<svg width="110px" height="35px" viewBox="0 0 110 35" version="1.1" xmlns="http://www.w3.org/2000/svg" xmlns:xlink="http://www.w3.org/1999/xlink">
    <!-- Generator: Sketch 48.2 (47327) - http://www.bohemiancoding.com/sketch -->
    <title>Combined Shape</title>
    <desc>Created with Sketch.</desc>
    <defs></defs>
    <g id="Nav" stroke="none" stroke-width="1" fill="none" fill-rule="evenodd" transform="translate(-818.000000, -8.000000)">
        <path d="M918.747664,42.5 C923.495224,42.5 927.5,34.92531 927.5,25.5 C927.5,16.07469 923.495224,8.5 918.747664,8.5 L827.252336,8.5 C822.504776,8.5 818.5,16.07469 818.5,25.5 C818.5,34.92531 822.504776,42.5 827.252336,42.5 L918.747664,42.5 Z M829,30.5 C826.514719,30.5 824.5,28.4852814 824.5,26 C824.5,23.5147186 826.514719,21.5 829,21.5 C831.485281,21.5 833.5,23.5147186 833.5,26 C833.5,28.4852814 831.485281,30.5 829,30.5 Z" id="Combined-Shape" stroke="#478E41"></path>
    </g>
</svg>